<?xml version="1.0" standalone="no"?>
<!DOCTYPE svg PUBLIC "-//W3C//DTD SVG 20010904//EN"
 "http://www.w3.org/TR/2001/REC-SVG-20010904/DTD/svg10.dtd">
<svg version="1.0" xmlns="http://www.w3.org/2000/svg"
 width="700.000000pt" height="700.000000pt" viewBox="0 0 700.000000 700.000000"
 preserveAspectRatio="xMidYMid meet">
<metadata>
Created by potrace 1.11, written by Peter Selinger 2001-2013
</metadata>
<g transform="translate(0.000000,700.000000) scale(0.100000,-0.100000)"
fill="#000000" stroke="none">
<path d="M3243 6487 c-352 -203 -468 -275 -460 -283 22 -21 892 -518 907 -518
8 0 223 120 478 267 254 147 467 265 472 262 6 -3 10 -3 10 2 0 10 -897 537
-919 540 -9 1 -228 -120 -488 -270z"/>
<path d="M4963 5899 c-18 -5 -97 -53 -175 -107 -262 -178 -388 -265 -385 -268
7 -8 806 330 800 339 -23 38 -161 59 -240 36z"/>
<path d="M2355 5679 c44 -46 229 -236 411 -421 l332 -338 134 1 c73 1 125 3
116 6 -14 3 -18 15 -18 53 l0 48 -477 333 c-263 183 -500 348 -528 368 -48 33
-47 31 30 -50z"/>
<path d="M5552 5614 c-27 -143 -114 -263 -281 -390 -103 -78 -234 -143 -353
-175 -48 -13 -84 -27 -79 -32 4 -4 127 -76 272 -160 l264 -153 3 -331 2 -331
-95 -54 -95 -55 0 -1303 c0 -717 1 -1305 3 -1306 1 -2 216 120 477 271 l475
274 3 1310 2 1310 85 48 85 48 -1 329 0 329 -372 219 c-205 120 -374 218 -377
218 -3 0 -11 -29 -18 -66z"/>
<path d="M1100 5251 l-415 -238 -3 -321 -2 -321 95 -56 95 -56 0 -1308 c0
-1035 3 -1311 13 -1319 21 -17 2401 -1385 2418 -1389 8 -2 268 141 576 319
l562 324 1 1304 c1 718 1 1454 1 1635 l-1 330 -87 50 c-48 28 -91 52 -95 53
-5 2 -8 -44 -8 -103 l0 -106 -186 215 -186 214 -183 106 c-100 58 -188 106
-194 106 -7 0 -95 -48 -196 -107 l-184 -107 -183 -212 -183 -212 -5 104 -5
104 -185 -107 c-102 -58 -186 -107 -188 -108 -1 -1 -2 -734 -2 -1628 0 -895
-2 -1627 -4 -1627 -3 0 -127 71 -278 158 l-273 158 -3 1306 -2 1306 -95 54
-95 53 0 330 1 330 418 240 c288 165 414 242 403 246 -10 4 -60 17 -112 28
-186 41 -316 82 -405 125 -150 74 -309 207 -375 314 -17 29 -33 52 -34 52 -1
0 -188 -107 -416 -239z"/>
<path d="M5004 3824 c-18 -14 -18 -15 4 -4 12 6 22 13 22 15 0 8 -5 6 -26 -11z"/>
<path d="M4934 3784 c-18 -14 -18 -15 4 -4 12 6 22 13 22 15 0 8 -5 6 -26 -11z"/>
</g>
</svg>
